<?xml version="1.0" encoding="UTF-8"?>
<svg id="Layer_1" data-name="Layer 1" xmlns="http://www.w3.org/2000/svg" viewBox="0 0 100 100">
  <g>
    <path d="M26.77,51.07l-2.33-.63s0,0,0,0c-.54-.19-.96-.56-1.23-1.02-.26-.46-.37-1.01-.27-1.57,0,0,0,0,0,0l.62-2.33s.04-.05.07-.04l1.19.29s.05.04.04.07l-.54,2.1s.04.08.08.06l1.83-1.06s.06,0,.07.02c.05.09.18.3.3.52.12.22.24.43.29.52.01.03,0,.06-.02.07l-1.83,1.06s-.03.09.01.1l2.09.58s.05.04.04.07l-.35,1.17s-.04.04-.07.04Z"/>
    <path d="M21.65,45.52l.62,2.33s0,0,0,0c.1.56,0,1.11-.27,1.57-.27.46-.69.82-1.23,1.02,0,0,0,0,0,0l-2.33.63s-.06,0-.07-.04l-.35-1.17s0-.06.04-.07l2.09-.58s.05-.08.01-.1l-1.83-1.06s-.03-.05-.02-.07c.05-.09.17-.31.29-.52.13-.21.25-.43.3-.52.02-.03.05-.03.07-.02l1.83,1.06s.09-.01.08-.06l-.54-2.1s.01-.06.04-.07l1.19-.29s.06.01.07.04Z"/>
    <path d="M19.39,52.73l1.71-1.71s0,0,0,0c.44-.37.96-.55,1.5-.56.53,0,1.06.19,1.5.56,0,0,0,0,0,0l1.71,1.71s.02.05,0,.08l-.84.89s-.06.02-.08,0l-1.55-1.51s-.09,0-.09.04v2.12s-.02.05-.05.05c-.11,0-.35,0-.6,0-.25,0-.49,0-.6,0-.03,0-.05-.02-.05-.05v-2.12s-.06-.07-.09-.04l-1.55,1.51s-.06.02-.08,0l-.84-.89s-.02-.05,0-.08Z"/>
  </g>
  <g>
    <path d="M35.56,47.3c-.6.06-.72.16-1.07.95-.24.56-1.16,2.69-1.84,4.47h-.3c-.59-1.57-1.34-3.42-1.83-4.64-.26-.64-.41-.73-.94-.77v-.26h2.24v.26c-.64.06-.65.14-.51.53.24.62.9,2.29,1.46,3.67h.01c.48-1.16,1.1-2.73,1.37-3.52.18-.51.13-.59-.59-.68v-.26h2v.26Z"/>
    <path d="M35.55,52.63v-.23c.55-.05.61-.11.61-.7v-1.73c0-.54-.03-.58-.55-.67v-.21c.47-.08.91-.18,1.3-.33v2.93c0,.59.06.64.62.7v.23h-1.98ZM36.01,47.59c0-.28.22-.48.48-.48s.46.21.46.48c0,.25-.2.46-.47.46-.25,0-.47-.22-.47-.46Z"/>
    <path d="M40.23,49.93c-.17-.5-.48-.86-.9-.86-.32,0-.54.23-.54.57,0,.35.33.56.72.71.66.26,1.12.58,1.12,1.18,0,.81-.74,1.2-1.46,1.2-.45,0-.86-.16-1.01-.28-.06-.11-.14-.72-.15-1.06l.24-.04c.16.58.56,1.09,1.07,1.09.32,0,.6-.24.6-.58s-.23-.55-.68-.75c-.51-.23-1.11-.52-1.11-1.2,0-.61.53-1.13,1.35-1.13.38,0,.61.08.79.15.08.19.18.72.2.92l-.23.07Z"/>
    <path d="M45.44,52.42c-.2.02-.45.08-.69.13-.24.06-.48.12-.66.17l-.06-.05v-.61c-.2.15-.37.29-.62.44-.26.14-.45.22-.69.22-.61,0-1.1-.36-1.1-1.29v-1.64c0-.47-.07-.51-.29-.56l-.24-.06v-.21c.18,0,.41-.03.66-.06.25-.03.51-.07.66-.09-.02.26-.02.68-.02,1.25v1.16c0,.72.36.94.75.94.31,0,.62-.12.9-.38v-1.98c0-.47-.08-.52-.36-.57l-.31-.05v-.21c.25,0,.56-.03.82-.07.26-.02.47-.06.6-.08v2.83c0,.45.07.51.41.53h.23v.24Z"/>
    <path d="M48.65,52.73c-.16,0-.35-.08-.45-.17-.12-.11-.17-.23-.21-.36-.35.22-.76.53-1.01.53-.65,0-1.08-.52-1.08-1.06,0-.43.23-.69.71-.84.56-.18,1.16-.4,1.35-.56v-.15c0-.62-.28-.95-.7-.95-.15,0-.28.06-.37.15-.11.11-.19.31-.26.58-.05.15-.15.21-.28.21-.17,0-.4-.18-.4-.38,0-.13.11-.23.28-.35.25-.18.85-.51,1.33-.6.28,0,.53.06.73.22.32.27.42.63.42,1.09v1.54c0,.38.15.51.31.51.1,0,.22-.04.31-.09l.09.23-.77.45ZM47.97,50.57c-.18.09-.53.25-.71.33-.34.15-.53.32-.53.63,0,.45.34.65.6.65.21,0,.49-.13.64-.28v-1.34Z"/>
    <path d="M49.63,52.63v-.23c.55-.06.62-.11.62-.69v-4.03c0-.58-.06-.6-.6-.65v-.21c.47-.05,1.03-.2,1.35-.3v5.19c0,.58.08.63.65.69v.23h-2.02Z"/>
    <path d="M57.5,48.39c-.15-.55-.42-1.17-1.16-1.17-.66,0-.97.46-.97.93,0,.6.4.9,1.12,1.24.75.36,1.52.77,1.52,1.71s-.79,1.66-1.98,1.66c-.36,0-.66-.06-.88-.14-.22-.07-.35-.14-.43-.18-.06-.17-.19-.95-.24-1.37l.26-.08c.15.55.58,1.44,1.47,1.44.64,0,1.02-.39,1.02-1.01s-.47-.92-1.14-1.27c-.61-.31-1.45-.73-1.45-1.68,0-.86.69-1.57,1.84-1.57.42,0,.81.1,1.14.21.04.31.08.66.15,1.22l-.26.05Z"/>
    <path d="M62.43,49.11c-.46.07-.54.14-.78.63-.22.43-.5,1.16-1.1,2.55-.59,1.37-.78,1.86-.93,2.34-.04.16-.15.21-.27.21-.25,0-.52-.21-.52-.44,0-.14.08-.22.22-.32.3-.18.47-.37.68-.76.15-.28.22-.45.26-.55.05-.13.04-.25-.02-.39-.37-1.02-.78-2.08-1.02-2.65-.19-.45-.28-.56-.75-.63v-.23h1.84v.23c-.39.07-.45.15-.33.46l.79,2.1c.23-.54.61-1.56.78-2.07.11-.32.04-.42-.45-.49v-.23h1.59v.23Z"/>
    <path d="M64.85,49.93c-.17-.5-.48-.86-.9-.86-.32,0-.54.23-.54.57,0,.35.33.56.72.71.66.26,1.12.58,1.12,1.18,0,.81-.74,1.2-1.46,1.2-.45,0-.86-.16-1.01-.28-.06-.11-.14-.72-.15-1.06l.24-.04c.16.58.56,1.09,1.07,1.09.32,0,.6-.24.6-.58s-.23-.55-.68-.75c-.51-.23-1.11-.52-1.11-1.2,0-.61.53-1.13,1.35-1.13.38,0,.61.08.79.15.08.19.18.72.2.92l-.23.07Z"/>
    <path d="M67.51,52.61c-.16.09-.29.12-.37.12-.58,0-.9-.33-.9-1.02v-2.47h-.59l-.04-.1.24-.26h.39v-.62l.64-.6.12.02v1.2h.97c.09.09.06.28-.06.36h-.92v2.17c0,.69.3.81.52.81.21,0,.4-.08.53-.15l.08.23-.6.31Z"/>
    <path d="M71.61,51.87c-.56.71-1.19.86-1.47.86-1.07,0-1.71-.86-1.71-1.82,0-.57.21-1.09.56-1.47.38-.41.85-.66,1.32-.66h0c.75,0,1.34.64,1.34,1.32,0,.16-.05.24-.21.28-.16.02-1.25.11-2.26.15.02,1.11.67,1.58,1.27,1.58.36,0,.69-.14,1.01-.43l.15.19ZM70.09,49.11c-.38,0-.75.33-.87,1.05.46,0,.93,0,1.42-.02.15,0,.21-.05.21-.16,0-.45-.28-.87-.74-.87h0Z"/>
    <path d="M76.99,52.63v-.23c.49-.05.59-.09.59-.7v-1.39c0-.65-.25-.99-.75-.99-.28,0-.6.16-.93.43.01.11.02.21.02.36v1.65c0,.54.08.59.56.65v.23h-1.92v-.23c.52-.05.6-.09.6-.66v-1.45c0-.65-.24-.97-.74-.97-.33,0-.65.22-.92.42v2c0,.55.08.6.48.66v.23h-1.88v-.23c.56-.05.65-.11.65-.67v-1.74c0-.55-.03-.6-.53-.68v-.22c.38-.06.86-.17,1.27-.34v.7c.19-.12.38-.28.64-.44.23-.14.45-.23.72-.23.42,0,.79.26.97.7.26-.19.5-.35.72-.49.19-.12.41-.22.66-.22.69,0,1.14.48,1.14,1.34v1.62c0,.57.06.59.56.66v.23h-1.91Z"/>
    <path d="M81.62,49.93c-.17-.5-.48-.86-.9-.86-.32,0-.54.23-.54.57,0,.35.33.56.72.71.66.26,1.12.58,1.12,1.18,0,.81-.74,1.2-1.46,1.2-.45,0-.86-.16-1.01-.28-.06-.11-.14-.72-.15-1.06l.24-.04c.16.58.56,1.09,1.07,1.09.32,0,.6-.24.6-.58s-.23-.55-.68-.75c-.51-.23-1.11-.52-1.11-1.2,0-.61.53-1.13,1.35-1.13.38,0,.61.08.79.15.08.19.18.72.2.92l-.23.07Z"/>
  </g>
</svg>